<svg xmlns="http://www.w3.org/2000/svg" viewBox="0 0 24 24" width="24" height="24">
  <path fill="#4F46E5" d="M17.5 4.5c-1.95 0-4.05.4-5.5 1.5-1.45-1.1-3.55-1.5-5.5-1.5-1.45 0-2.99.22-4.28.79C1.49 5.62 1 6.33 1 7.14v11.28c0 .81.49 1.52 1.22 1.85 1.29.57 2.83.79 4.28.79 1.95 0 4.05-.4 5.5-1.5 1.45 1.1 3.55 1.5 5.5 1.5 1.45 0 2.99-.22 4.28-.79.73-.33 1.22-1.04 1.22-1.85V7.14c0-.81-.49-1.52-1.22-1.85-1.29-.57-2.83-.79-4.28-.79zM21 17.23c0 .19-.11.33-.28.43-.76.32-1.97.51-3.22.51-1.69 0-3.25-.32-4.5-1.17v-9.5c1.25-.85 2.81-1.17 4.5-1.17 1.25 0 2.46.19 3.22.51.17.1.28.24.28.43v10.96zM3 17.23V6.27c0-.19.11-.33.28-.43.76-.32 1.97-.51 3.22-.51 1.69 0 3.25.32 4.5 1.17v9.5c-1.25.85-2.81 1.17-4.5 1.17-1.25 0-2.46-.19-3.22-.51-.17-.1-.28-.24-.28-.43z"/>
</svg> 